<?xml version="1.0" encoding="UTF-8"?>
<svg viewBox="0 0 14 16" version="1.1" xmlns="http://www.w3.org/2000/svg" xmlns:xlink="http://www.w3.org/1999/xlink">
    <defs>
        <path d="M8,0 C11.6818983,0 14.6666667,2.98476827 14.6666667,6.66666657 C14.6666667,8.91440297 13.4650656,11.1173382 11.4839685,13.2084963 C10.8046681,13.9255356 10.0788353,14.5787851 9.35278452,15.1569367 C9.09826571,15.3596091 8.86144912,15.5387396 8.64813954,15.6927965 C8.51814935,15.7866783 8.42343025,15.85228 8.36980013,15.8880334 C8.14586719,16.0373221 7.85413281,16.0373221 7.63019987,15.8880334 C7.57656975,15.85228 7.48185065,15.7866783 7.35186046,15.6927965 C7.13855088,15.5387396 6.90173429,15.3596091 6.64721548,15.1569367 C5.92116465,14.5787851 5.19533193,13.9255356 4.51603154,13.2084963 C2.53493438,11.1173382 1.33333333,8.91440297 1.33333333,6.66666657 C1.33333333,2.98476827 4.31810171,0 8,0 Z M8,1.33333333 C5.05448137,1.33333333 2.66666667,3.72114795 2.66666667,6.66666658 C2.66666667,8.50226352 3.71506562,10.4243283 5.48396846,12.2915035 C6.11716807,12.9598808 6.79758535,13.5722564 7.47778452,14.1138965 C7.66344739,14.2617391 7.83845898,14.3957401 8,14.5150778 C8.16154102,14.3957401 8.33655261,14.2617391 8.52221548,14.1138965 C9.20241465,13.5722564 9.88283193,12.9598808 10.5160315,12.2915035 C12.2849344,10.4243283 13.3333333,8.50226352 13.3333333,6.66666658 C13.3333333,3.72114795 10.9455186,1.33333333 8,1.33333333 Z M8,3.99999991 C9.47275933,3.99999991 10.6666667,5.19390724 10.6666667,6.66666658 C10.6666667,8.13942591 9.47275933,9.33333324 8,9.33333324 C6.52724067,9.33333324 5.33333333,8.13942591 5.33333333,6.66666658 C5.33333333,5.19390724 6.52724067,3.99999991 8,3.99999991 Z M8,5.33333324 C7.26362033,5.33333324 6.66666667,5.93028691 6.66666667,6.66666658 C6.66666667,7.40304624 7.26362033,7.99999991 8,7.99999991 C8.73637967,7.99999991 9.33333333,7.40304624 9.33333333,6.66666658 C9.33333333,5.93028691 8.73637967,5.33333324 8,5.33333324 Z" id="path-1"></path>
    </defs>
    <g id="Page-1" stroke="none" stroke-width="1" fill="none" fill-rule="evenodd">
        <g id="Artboard" transform="translate(-49.000000, -101.000000)">
            <g id="map-pin" transform="translate(48.000000, 101.000000)">
                <mask id="mask-2" fill="white">
                    <use xlink:href="#path-1"></use>
                </mask>
                <use id="Combined-Shape" fill="#000000" fill-rule="nonzero" xlink:href="#path-1"></use>
                <g id="COLOR/-black" mask="url(#mask-2)" fill="#000000" fill-rule="evenodd">
                    <rect id="Rectangle" x="0" y="0" width="16" height="16"></rect>
                </g>
            </g>
        </g>
    </g>
</svg>